<svg width="100" height="41" viewBox="0 0 100 41" fill="none" xmlns="http://www.w3.org/2000/svg">
<g clip-path="url(#clip0_822_68764)">
<mask id="mask0_822_68764" style="mask-type:alpha" maskUnits="userSpaceOnUse" x="0" y="0" width="100" height="41">
<path d="M0 0.142822H99.5943V40.1428H0V0.142822Z" fill="white"/>
</mask>
<g mask="url(#mask0_822_68764)">
<path d="M99.2028 30.5934H94.0143L94.8715 27.1714H84.4556L83.602 30.5934H78.5721V29.8907C78.6497 29.5043 78.7168 29.1002 78.812 28.668C79.7291 24.979 82.1593 21.3322 86.3673 21.3322C88.0321 21.3322 89.6864 21.9646 89.4607 24.2588H95.6509C95.8943 23.1872 96.3035 21.3638 95.136 19.6914C93.8168 17.8714 91.1573 17.1407 87.7112 17.1407C85.2421 17.1407 81.6691 17.5306 78.5721 19.5474V0.926309H99.2028V30.5934ZM87.0269 35.6071C85.8837 35.8252 84.7235 35.9428 83.5596 35.9584C80.5863 35.9584 78.5157 34.5811 78.4735 31.3699H88.0816L87.0269 35.6071ZM75.1401 18.6655V22.9167C73.8561 24.6834 72.9235 26.6786 72.3925 28.7946C72.2368 29.3848 72.1271 29.9863 72.0645 30.5934H69.0345L71.6236 18.3458H62.9043L55.088 30.5934H54.5096V0.933336H75.1296L75.1401 18.6655ZM63.6239 30.5934H60.5235L65.2181 23.2364L63.6239 30.5934ZM51.1057 18.3176H45.9455L42.4183 30.5934H36.9299C39.72 29.5675 41.4165 27.6035 41.9421 24.6944C42.3724 22.4318 42.1679 20.9422 41.2367 19.8284C39.8469 18.17 37.0604 18.3106 34.5843 18.3106H30.4928V0.933336H51.0987L51.1057 18.3176ZM47.8079 30.5934L49.9805 22.9167L50.0547 30.5934H47.8079ZM32.7996 27.6738C32.5985 27.6738 32.3975 27.7019 32.1681 27.7019C31.8648 27.7019 31.632 27.7019 31.4099 27.7019H30.0907L30.7008 25.4534L30.9865 24.3396L31.692 21.7256H32.5844H33.6073C35.3497 21.7256 36.4537 21.824 36.8559 22.3826C37.1627 22.8007 37.1239 23.528 36.7607 24.6276C36.1399 26.5284 35.3497 27.4911 32.8136 27.6843M27.0643 19.4068L26.7433 20.4608L23.7911 30.2491L23.6747 30.6004H13.9677L13.2094 28.9878L23.6747 18.3458H16.9517L8.76865 27.1292L11.4176 18.3458H6.45832V0.933336H27.0643V19.4068ZM77.7892 0.142822V20.1024C77.1164 20.635 76.4964 21.2302 75.9373 21.8802V0.142822H53.7407V18.3176H51.9029V0.142822H29.7027V18.3458H27.8649V0.142822H5.66471V20.907L0 39.7036H4.98395L7.48475 31.3734H8.19019L12.3347 39.7036H18.3556L14.3452 31.3734H23.4419L20.9199 39.7036H26.3624L28.8525 31.3944H30.0483V31.3734H42.1643L39.7623 39.6791H45.2507L47.5785 31.3734H50.0476L50.1147 39.6791H54.7212L60.012 31.3734H63.4721L61.6875 39.6791H67.0911L68.8547 31.3734H71.9799C71.8564 33.9487 72.516 36.2922 74.2301 37.8591C76.3253 39.7775 79.5421 40.1428 81.9231 40.1428C85.3031 40.1023 88.6683 39.6911 91.958 38.9167L93.8309 31.3734H100V0.142822L77.7892 0.142822Z" fill="#B7BFC7"/>
</g>
</g>
<defs>
<clipPath id="clip0_822_68764">
<rect width="100" height="40" fill="white" transform="translate(0 0.142822)"/>
</clipPath>
</defs>
</svg>
