<svg width="84" height="37" viewBox="0 0 84 37" fill="none" xmlns="http://www.w3.org/2000/svg">
<path d="M35.5422 12.9121C39.5071 3.19001 32.0891 0.547241 27.2716 0.547241H11.2845C11.7498 0.839491 12.0921 1.29075 12.2471 1.81639C12.4021 2.34202 12.3592 2.90591 12.1265 3.40229L2.81131 33.0354C2.58844 33.6117 2.25204 34.1377 1.82189 34.5825C1.39174 35.0272 0.876519 35.3817 0.306641 35.6251H13.2349C12.7223 35.4703 12.2917 35.1205 12.0363 34.6516C11.7809 34.1829 11.7214 33.6327 11.8707 33.1204L15.2493 22.4005C15.2493 22.4005 30.8208 24.5233 35.4997 12.9121H35.5422ZM22.9764 3.27491C24.6711 3.27491 29.3713 3.50842 26.323 12.3389C23.1257 21.6153 16.1232 19.7047 16.1232 19.7047L21.2925 3.27491H22.9657H22.9764Z" fill="#B7BFC7"/>
<path d="M45.8913 35.6464H54.599C51.4046 34.4776 48.4976 32.6429 46.0724 30.2653C47.995 28.4449 49.1593 25.9708 49.3339 23.3345H44.8254C45.087 23.5015 45.3027 23.7305 45.4533 24.001C45.6041 24.2714 45.685 24.5749 45.6888 24.8842C45.6562 26.0684 45.2497 27.2122 44.527 28.1533C42.8849 25.964 41.789 23.4176 41.3296 20.7236C43.5567 19.8229 45.6536 18.6308 47.5647 17.1787C48.2339 16.6765 48.7883 16.0382 49.1907 15.3062C49.5931 14.5743 49.8346 13.7654 49.8987 12.9333V12.8059C49.9014 12.2861 49.7989 11.7711 49.5974 11.2916C49.3961 10.812 49.0998 10.3777 48.7263 10.0146C47.9846 9.35251 47.0939 8.87773 46.1295 8.63021C45.1649 8.3827 44.1547 8.36969 43.1841 8.59234C41.717 8.88416 40.3511 9.5497 39.2194 10.524C36.5974 12.9864 36.267 17.0302 36.267 18.8663V19.8427L35.8513 20.0125C33.9328 20.7236 28.8063 22.0715 26.9838 26.2745C26.6051 27.2383 26.4134 28.2646 26.419 29.2994C26.3964 30.5752 26.7404 31.831 27.4102 32.9186C28.6997 34.9352 30.8953 36.2089 34.4019 36.1028C38.2175 36.0391 41.9798 33.4493 42.6406 32.9186C43.6098 33.9094 44.6816 34.7953 45.838 35.5615L45.8913 35.6464ZM45.8913 12.201C45.4437 15.0242 41.7667 17.8792 40.8713 18.2614C40.5974 16.1321 41.0355 13.9723 42.1183 12.1161C42.9922 10.7575 44.1754 10.1632 45.1238 10.5028C45.8913 10.7681 45.9659 11.458 45.902 12.201H45.8913ZM40.8181 31.0931C39.4544 31.8752 37.9531 32.3903 36.395 32.6108C34.6363 32.7806 31.7161 32.1014 31.7374 28.5989C31.7374 25.606 34.9987 23.4196 36.7787 22.6553C37.5855 25.696 38.9593 28.5583 40.8288 31.0931H40.8181Z" fill="#B7BFC7"/>
<path d="M72.3342 3.30686C77.5033 2.06507 81.7665 6.09824 82.1503 6.3742L83.621 1.70423C81.5854 1.08864 66.7385 -3.91036 56.251 8.0087C49.8029 15.3426 48.2256 30.3609 56.4003 34.3941C65.1506 38.7032 74.8174 33.7361 75.5848 33.3858L79.5283 20.7026C79.7327 19.9488 80.1283 19.26 80.6769 18.7025C81.2257 18.1449 81.9093 17.7372 82.6618 17.5185H68.8063C69.4322 17.69 69.9647 18.1005 70.2881 18.6611C70.6114 19.2216 70.6994 19.8867 70.533 20.5115L66.5361 33.1947C66.0032 33.2903 54.8122 36.071 61.0792 16.6058C62.454 12.424 66.2163 4.77155 72.366 3.29627L72.3342 3.30686Z" fill="#B7BFC7"/>
</svg>
