<svg fill="none" height="48" viewBox="0 0 143 48" width="143" xmlns="http://www.w3.org/2000/svg" xmlns:xlink="http://www.w3.org/1999/xlink"><clipPath id="a"><path d="m0 0h143v48h-143z"/></clipPath><g clip-path="url(#a)"><path clip-rule="evenodd" d="m.00006104 19.2008c0-6.873 5.00588896-13.2008 14.49323896-13.2008 7.6042 0 13.5159 5.4036 13.5398 12.632 0 7.5365-4.7676 13.58-11.3944 13.58-2.2169 0-4.3146-1.1613-5.0297-2.5122 0 0-1.0966 4.1712-1.3588 5.1903-.73894 2.8202-3.36108 6.7307-3.57562 7.0151-.02384.0474-.09535.0948-.16686.0948-.11919 0-.23838-.0948-.23838-.2133-.07151-.4029-.83431-5.0955-.16686-7.9868.40524-1.7064 2.57446-10.8545 2.57446-10.8545-.45291-1.0191-.69129-2.133-.66745-3.2469 0-3.0336 1.76398-5.3088 3.98091-5.3088 1.8593 0 2.7651 1.3983 2.7651 3.081 0 1.1585-.4563 2.6708-.9397 4.2731-.2979.9873-.6061 2.0088-.8243 3.0027-.5244 2.1567 1.0966 3.9342 3.242 3.9342 3.8855 0 6.889-4.0764 6.889-9.9776 0-5.214-3.7663-8.86374-9.1536-8.86374-6.24546 0-9.91645 4.64514-9.91645 9.45624 0 1.8723.71513 3.8868 1.62096 4.977.14302.1895.21453.4265.14302.6398-.08665.357-.23117.9248-.36009 1.4314-.11933.4689-.22531.8853-.25969 1.0334-.09535.4029-.30989.474-.73896.2844-2.74132-1.2798-4.45762896-5.2613-4.45762896-8.4608zm74.75683896 3.9334c1.5256 0 2.0501.9243 2.0501 2.0145 0 1.8485-1.4303 2.9624-3.6949 2.9624-.8819-.0237-1.7639-.1659-2.5983-.4029.2861-1.7063 1.3826-4.574 4.2431-4.574zm32.5381 0c1.383 0 2.05.9243 2.05 2.0145 0 1.8485-1.43 2.9624-3.695 2.9624-.882-.0237-1.764-.1659-2.598-.4029.286-1.7063 1.526-4.574 4.243-4.574zm30.846.1422h3.457c.476 0 .762-.1896.858-.6399.06-.2328.134-.5283.207-.8237.128-.5168.256-1.0336.317-1.2145.095-.4029-.119-.6873-.572-.6873h-3.433c.042-.1689.106-.4045.183-.6892.366-1.3531 1.033-3.8167 1.033-5.5201 0-4.12381-3.528-7.63139-8.534-7.63139-5.649 0-9.32 3.76827-9.32 9.05329.024 1.5879.476 3.1284 1.311 4.4793-.31-.0237-.62-.0237-.93-.0237-4.291 0-6.984 2.3226-6.984 5.688 0 3.152 2.503 4.3844 4.863 5.2139.321.1124.638.2154.944.315 1.699.5517 3.084 1.0017 3.084 2.3868 0 1.0902-1.049 1.7301-3.146 1.7301-2.456 0-3.814-1.1613-4.172-1.5879.381-.3318.596-.8295.572-1.3509 0-1.0191-.715-1.8249-2.05-1.8249-1.12 0-2.074.9006-2.312 2.1093-1.812 1.4694-3.766 2.4174-6.555 2.4174-2.766 0-4.172-1.422-4.172-4.4556.644.1896 2.336.4266 3.433.4266 4.648 0 7.818-2.1093 7.818-6.3278 0-2.2752-2.002-4.6452-5.959-4.6452h-.024c-5.197 0-8.1286 3.2706-9.392 6.8966-.1787-.0474-.3575-.0888-.5363-.1303s-.3576-.083-.5364-.1304c.3338-.8769.5006-1.8248.5006-2.7491 0-1.7775-1.1203-3.8868-4.0762-3.8868-2.0739 0-4.0286 1.3509-5.3873 3.3654.1519-.6041.2841-1.11.383-1.4887.1184-.4532.1891-.7241.1891-.7628.0954-.3555-.0477-.7347-.5959-.7347h-3.0512c-.4291 0-.739.1422-.8582.6399-.0715.3318-1.1204 4.4319-2.1454 8.3897-.6436 2.4885-3.957 5.5695-8.1286 5.5695-2.7413 0-4.1716-1.5168-4.1716-4.5504.7152.2844 2.3123.5214 3.4326.5214 4.8391 0 7.8426-2.1093 7.8426-6.3278 0-2.2752-2.0023-4.6452-5.9594-4.6452h-.0238c-5.8641 0-9.4397 4.5267-10.0595 9.6695-.2622 2.133-2.0738 5.0718-4.0285 5.0718-.9535 0-1.5018-.5925-1.5018-1.6116 0-.6925.3865-2.1682.8895-4.0887v-.0002c.134-.5115.2762-1.0546.4216-1.6228.1539-.5814.3475-1.3605.5681-2.2478l.0001-.0004v-.0002c.1211-.4868.2502-1.0063.3853-1.5435h3.1942c.4768 0 .739-.1896.8582-.6399.143-.6399.429-1.7538.5244-2.0382.0953-.4029-.1192-.6873-.5721-.6873h-3.1466s1.4303-5.7117 1.478-5.8776c.143-.5924-.3576-.9242-.8582-.8057 0 0-2.4314.4739-2.8843.5687-.453.0948-.8105.3555-.9774.9954l-1.2872 5.1429h-2.503c-.4767 0-.7628.1896-.8581.6399-.0606.2324-.1338.5274-.207.8224l-.0003.001c-.1282.5169-.2565 1.0338-.3171 1.2148-.0954.4029.1192.6873.5721.6873h2.4552c-.0238.0711-.882 3.3653-1.5971 6.3278-.3337 1.422-1.4541 4.7637-3.2657 4.7637-1.0966 0-1.5495-.5451-1.5495-1.7301 0-.8964.4316-2.4449.8763-4.0401.4723-1.6943.9592-3.4413.9592-4.5155 0-2.7966-1.5017-4.4319-4.6006-4.4319-1.9547 0-3.9809 1.2561-4.8391 2.3463 0 0 .2623-.9006.3576-1.2561.0954-.2844-.0715-.5925-.3576-.6873-.0715-.0237-.1668-.0237-.2383-.0237h-3.0036c-.6436 0-.8105.3555-.9058.711-.0258.0768-.3506 1.3569-.8092 3.1642-.3904 1.5384-.8777 3.4587-1.36 5.344-.7151 2.8203-2.4553 5.1666-4.3146 5.1666-.9535 0-1.3826-.5925-1.3826-1.6116 0-.7684.4393-2.5193.997-4.7426v-.0002l.0004-.0015c.0787-.3135.1597-.6365.2422-.9674.4394-1.7225.8457-3.2806 1.1424-4.4183l.0002-.0006c.2665-1.022.4445-1.7045.4783-1.8615.0954-.4029-.0715-.7347-.5959-.7347h-3.0512c-.5483 0-.7628.2844-.8582.6873 0 0-.8581 3.2232-1.764 6.8255-.0602.2353-.1208.471-.1813.706l-.001.004c-.6091 2.3674-1.2003 4.6654-1.2003 5.8075 0 2.2278 1.0012 3.9104 3.7664 3.9104 2.1215 0 3.814-1.0664 5.1012-2.441-.0418.161-.0802.3096-.1148.4439l-.0002.0005c-.1234.4778-.2001.7747-.2187.8117-.1192.4265.0238.8058.5244.8058h3.1227c.5483 0 .739-.2134.8582-.6873.1192-.474 2.4314-9.5511 2.4314-9.5511.6198-2.441 2.1454-4.0763 4.2908-4.0763 1.025 0 1.8832.6636 1.7878 1.9671-.0471.5621-.3439 1.7059-.6855 3.0227v.0001c-.5225 2.0138-1.15 4.4322-1.15 5.7935 0 1.7064.6436 3.9104 3.8617 3.9104 2.1931 0 3.8379-1.0427 5.0059-2.4173.4291 1.4457 1.5733 2.4173 3.671 2.4173 3.4803 0 5.578-2.0618 6.8175-4.1237 1.0251 2.3937 3.4326 4.1237 6.9368 4.1237 3.1465.0237 6.1739-1.256 8.3193-3.5549-.17.6535-.313 1.2105-.4189 1.6228-.1168.4549-.1884.7336-.2009.7709-.1192.4266.0715.7821.596.7821h3.075c.4052.0237.7628-.2608.8343-.6636.0205-.0916.1156-.4584.2666-1.0403.2007-.7736.5001-1.9274.8538-3.3205 1.2157-4.6452 3.1465-9.4799 6.0547-9.4799 1.025 0 1.4541.5688 1.4541 1.4694 0 .3318-.0715.6873-.2384.9953-1.4064-.2843-2.5506.4029-2.5506 1.896 0 .9717 1.0489 1.8723 2.4315 1.8723 1.0727 0 1.9546-.2607 2.6459-.7347.2508.0554.5124.1108.7806.1676l.0006.0001c.42.089.8564.1814 1.2927.2826-.0954.6636-.1669 1.3509-.1669 2.0382 0 3.7446 2.8128 6.9203 7.6278 6.9203 3.767 0 6.198-1.256 8.463-3.1283 1.072 1.7538 3.79 3.152 7.342 3.152 4.862 0 7.651-2.5121 7.651-5.8538 0-3.0099-2.503-4.1238-5.053-5.0481-.255-.092-.504-.1788-.746-.2629-1.749-.609-3.092-1.0767-3.092-2.3677 0-1.2087.954-1.7538 2.574-1.7538.763 0 1.55.1185 2.289.3555.429 1.0428 1.287 2.204 2.765 2.204 1.263 0 1.812-.9953 1.812-1.8959 0-1.0466-.712-1.7159-1.56-2.5121-1.244-1.1691-2.779-2.612-2.779-5.9251 0-3.4601 1.979-6.30411 6.055-6.30411 2.837 0 4.696 1.77751 4.696 4.66881 0 2.37-1.454 6.6123-1.454 6.6123h-2.455c-.477 0-.763.1896-.859.6399-.06.2324-.133.5274-.206.8224l-.001.0012v.0004c-.128.5167-.256 1.0333-.317 1.2142-.095.4029.119.6873.572.6873h2.408s-2.479 9.1244-2.479 10.7834c0 2.2278 1.263 3.9104 4.028 3.9104 3.91 0 6.365-2.5121 7.414-6.1856.071-.1896 0-.4029-.191-.4977-.048-.0237-.119-.0237-.167-.0237h-1.502c-.262 0-.5.1896-.548.4503-.334 1.3035-1.168 2.6781-2.813 2.6781-.953 0-1.502-.5925-1.502-1.6116 0-.775.447-2.4572 1.061-4.7684.081-.3038.165-.6184.251-.9433.357-1.422.953-3.8867.953-3.8867zm-101.9317-8.01c-.1192 1.6116-1.4541 2.8914-3.0035 2.8914-1.5495 0-2.7175-1.3035-2.6222-2.8914.1192-1.6116 1.4541-2.8914 3.0036-2.8914 1.5494 0 2.7175 1.3035 2.6221 2.8914z" fill="#B7BFC7" fill-rule="evenodd"/></g></svg>
