<svg fill="none" height="48" viewBox="0 0 97 48" width="97" xmlns="http://www.w3.org/2000/svg" xmlns:xlink="http://www.w3.org/1999/xlink"><clipPath id="a"><path d="m0 0h97v48h-97z"/></clipPath><g clip-path="url(#a)"><path clip-rule="evenodd" d="m52.5131 4v5.42063l-6.763 1.44197v-5.44736zm14.0657 8.4375c-2.6406 0-4.3381 1.2283-5.2812 2.0828l-.3502-1.6556h-5.9278v31.1353l6.7361-1.4153.0269-7.5568c.97.6943 2.3981 1.6823 4.7692 1.6823 4.8231 0 9.215-3.8452 9.215-12.3099-.0269-7.7438-4.4728-11.9628-9.188-11.9628zm-1.6167 18.3981c-1.5897 0-2.5328-.5608-3.1795-1.255l-.0269-9.9067c.7006-.7744 1.6706-1.3084 3.2064-1.3084 2.4519 0 4.1494 2.7236 4.1494 6.2217 0 3.5781-1.6705 6.2484-4.1494 6.2484zm32.0382-6.1683c0-6.8359-3.3412-12.2298-9.727-12.2298-6.4128 0-10.2928 5.3939-10.2928 12.1764 0 8.0375 4.5806 12.0962 11.155 12.0962 3.2064 0 5.6314-.7209 7.4637-1.7356v-5.3405c-1.8323.9079-3.9339 1.4686-6.6014 1.4686-2.6137 0-4.9309-.9079-5.2273-4.0588h13.1759c0-.1463.0096-.4776.0206-.86l.0002-.006v-.0004-.0003-.0007l.0001-.0006v-.0004c.0151-.523.033-1.1393.033-1.5081zm-13.3106-2.5368c0-3.0174 1.8592-4.2724 3.5567-4.2724 1.6436 0 3.395 1.255 3.395 4.2724zm-31.1766-9.2399h-6.763v23.3648h6.763zm-14.4391.0026.4311 1.976c1.5897-2.8839 4.7422-2.2964 5.6045-1.976v6.1416c-.8353-.2937-3.5298-.6676-5.1195 1.3885v15.8347h-6.7361v-23.3648zm-13.0429-5.79554-6.5744 1.38853-.027 21.38881c0 3.9519 2.9909 6.8625 6.9787 6.8625 2.2094 0 3.8261-.4005 4.7153-.8812v-5.4206c-.8623.3472-5.1195 1.5755-5.1195-2.3765v-9.4794h5.1195v-5.6877h-5.1195zm-15.9238 11.13434c-1.42806 0-2.29029.4005-2.29029 1.4419 0 1.137 1.4839 1.6372 3.32489 2.2577 3.0011 1.0116 6.9512 2.3431 6.9679 7.2751 0 4.7798-3.8531 7.5302-9.45751 7.5302-2.31722 0-4.85-.454-7.35584-1.5221v-6.3552c2.26334 1.2283 5.11945 2.1362 7.35584 2.1362 1.50889 0 2.58671-.4005 2.58671-1.6289 0-1.2594-1.60861-1.8351-3.5506-2.5301-2.95752-1.0585-6.68833896-2.3937-6.68833896-6.8425 0-4.7263 3.63750896-7.5568 9.10723896-7.5568 2.2364 0 4.4458.3471 6.6822 1.2283v6.2751c-2.0478-1.0948-4.6344-1.7089-6.6822-1.7089z" fill="#B7BFC7" fill-rule="evenodd"/></g></svg>
